<svg width="30" height="30" viewBox="0 0 30 30" fill="none" xmlns="http://www.w3.org/2000/svg">
<path d="M28.0875 23.5251L26.8375 18.7001L22.9 4.21257C22.8149 3.89299 22.6066 3.62016 22.3208 3.45382C22.035 3.28747 21.6949 3.24118 21.375 3.32507L16.5375 4.57507C16.4221 4.44712 16.2814 4.34443 16.1244 4.27345C15.9673 4.20246 15.7973 4.16471 15.625 4.16257H3.125C2.79348 4.16257 2.47554 4.29426 2.24112 4.52868C2.0067 4.76311 1.875 5.08105 1.875 5.41257V25.4126C1.875 25.7441 2.0067 26.062 2.24112 26.2965C2.47554 26.5309 2.79348 26.6626 3.125 26.6626H15.625C15.9565 26.6626 16.2745 26.5309 16.5089 26.2965C16.7433 26.062 16.875 25.7441 16.875 25.4126V15.4126L19.625 25.6876C19.6983 25.9603 19.8617 26.2001 20.0887 26.3681C20.3156 26.5361 20.5928 26.6222 20.875 26.6126C20.983 26.6249 21.092 26.6249 21.2 26.6126L27.2375 25.0001C27.3971 24.9574 27.5467 24.8835 27.6776 24.7827C27.8084 24.6818 27.918 24.556 28 24.4126C28.1319 24.136 28.1628 23.822 28.0875 23.5251ZM8.0875 24.2126H4.3375V21.7126H8.0875V24.2126ZM8.0875 19.2126H4.3375V11.7126H8.0875V19.2126ZM8.0875 9.21257H4.3375V6.71257H8.0875V9.21257ZM14.3375 24.2126H10.5875V21.7126H14.3375V24.2126ZM14.3375 19.2126H10.5875V11.7126H14.3375V19.2126ZM14.3375 9.21257H10.5875V6.71257H14.3375V9.21257ZM17.15 7.03757L20.775 6.06257L21.425 8.47507L17.8 9.45007L17.15 7.03757ZM20.3875 19.1126L18.45 11.8626L22.075 10.8876L24.0125 18.1376L20.3875 19.1126ZM21.6375 23.9376L20.9875 21.5251L24.6125 20.5501L25.2625 22.9626L21.6375 23.9376Z" fill="white"/>
</svg>
