<svg width="30" height="30" viewBox="0 0 30 30" fill="none" xmlns="http://www.w3.org/2000/svg">
<path d="M30 13.0125C29.9844 12.8403 29.9542 12.6706 29.91 12.5063V12.3375C29.8379 12.1447 29.7417 11.9675 29.625 11.8125V11.8125L20.625 0.5625C20.501 0.416656 20.3592 0.296402 20.205 0.20625H20.055C19.9091 0.108756 19.7524 0.0392287 19.59 0H4.5C3.30653 0 2.16193 0.592632 1.31802 1.64752C0.474106 2.70242 0 4.13316 0 5.625V24.375C0 25.8668 0.474106 27.2976 1.31802 28.3525C2.16193 29.4074 3.30653 30 4.5 30H25.5C26.6935 30 27.8381 29.4074 28.682 28.3525C29.5259 27.2976 30 25.8668 30 24.375V13.125C30 13.125 30 13.125 30 13.0125ZM21 6.39375L24.885 11.25H22.5C22.1022 11.25 21.7206 11.0525 21.4393 10.7008C21.158 10.3492 21 9.87228 21 9.375V6.39375ZM27 24.375C27 24.8723 26.842 25.3492 26.5607 25.7008C26.2794 26.0525 25.8978 26.25 25.5 26.25H4.5C4.10218 26.25 3.72064 26.0525 3.43934 25.7008C3.15804 25.3492 3 24.8723 3 24.375V5.625C3 5.12772 3.15804 4.65081 3.43934 4.29918C3.72064 3.94754 4.10218 3.75 4.5 3.75H18V9.375C18 10.8668 18.4741 12.2976 19.318 13.3525C20.1619 14.4074 21.3065 15 22.5 15H27V24.375ZM7.5 15H13.5C13.8978 15 14.2794 14.8025 14.5607 14.4508C14.842 14.0992 15 13.6223 15 13.125C15 12.6277 14.842 12.1508 14.5607 11.7992C14.2794 11.4475 13.8978 11.25 13.5 11.25H7.5C7.10218 11.25 6.72064 11.4475 6.43934 11.7992C6.15804 12.1508 6 12.6277 6 13.125C6 13.6223 6.15804 14.0992 6.43934 14.4508C6.72064 14.8025 7.10218 15 7.5 15ZM7.5 18.75C7.10218 18.75 6.72064 18.9475 6.43934 19.2992C6.15804 19.6508 6 20.1277 6 20.625C6 21.1223 6.15804 21.5992 6.43934 21.9508C6.72064 22.3025 7.10218 22.5 7.5 22.5H22.5C22.8978 22.5 23.2794 22.3025 23.5607 21.9508C23.842 21.5992 24 21.1223 24 20.625C24 20.1277 23.842 19.6508 23.5607 19.2992C23.2794 18.9475 22.8978 18.75 22.5 18.75H7.5Z" fill="white"/>
</svg>
