<svg width="50" height="50" viewBox="0 0 50 50" fill="none" xmlns="http://www.w3.org/2000/svg">
<path d="M10.4167 37.5002H19.2501C19.5243 37.5018 19.7961 37.4492 20.0499 37.3456C20.3037 37.2419 20.5346 37.0891 20.7292 36.896L35.1459 22.4585L41.0626 16.6669C41.2578 16.4732 41.4128 16.2428 41.5186 15.9889C41.6244 15.735 41.6788 15.4627 41.6788 15.1877C41.6788 14.9127 41.6244 14.6404 41.5186 14.3865C41.4128 14.1326 41.2578 13.9022 41.0626 13.7085L32.2292 4.77103C32.0356 4.57576 31.8052 4.42078 31.5513 4.31501C31.2974 4.20924 31.0251 4.15479 30.7501 4.15479C30.4751 4.15479 30.2028 4.20924 29.9489 4.31501C29.695 4.42078 29.4646 4.57576 29.2709 4.77103L23.3959 10.6669L8.93758 25.1044C8.74449 25.299 8.59173 25.5299 8.48806 25.7837C8.38438 26.0376 8.33183 26.3094 8.33341 26.5835V35.4169C8.33341 35.9694 8.55291 36.4993 8.94361 36.89C9.33431 37.2807 9.86421 37.5002 10.4167 37.5002ZM30.7501 9.1877L36.6459 15.0835L33.6876 18.0419L27.7917 12.146L30.7501 9.1877ZM12.5001 27.4377L24.8542 15.0835L30.7501 20.9794L18.3959 33.3335H12.5001V27.4377ZM43.7501 41.6669H6.25008C5.69755 41.6669 5.16764 41.8864 4.77694 42.2771C4.38624 42.6678 4.16675 43.1977 4.16675 43.7502C4.16675 44.3027 4.38624 44.8326 4.77694 45.2233C5.16764 45.614 5.69755 45.8335 6.25008 45.8335H43.7501C44.3026 45.8335 44.8325 45.614 45.2232 45.2233C45.6139 44.8326 45.8334 44.3027 45.8334 43.7502C45.8334 43.1977 45.6139 42.6678 45.2232 42.2771C44.8325 41.8864 44.3026 41.6669 43.7501 41.6669Z" fill="white"/>
</svg>
