<svg width="40" height="40" viewBox="0 0 40 40" fill="none" xmlns="http://www.w3.org/2000/svg">
<path d="M31.6668 6.6665H8.3335C7.00741 6.6665 5.73564 7.19329 4.79796 8.13097C3.86028 9.06865 3.3335 10.3404 3.3335 11.6665V28.3332C3.3335 29.6593 3.86028 30.931 4.79796 31.8687C5.73564 32.8064 7.00741 33.3332 8.3335 33.3332H31.6668C32.9929 33.3332 34.2647 32.8064 35.2024 31.8687C36.14 30.931 36.6668 29.6593 36.6668 28.3332V11.6665C36.6668 10.3404 36.14 9.06865 35.2024 8.13097C34.2647 7.19329 32.9929 6.6665 31.6668 6.6665ZM8.3335 9.99984H31.6668C32.1089 9.99984 32.5328 10.1754 32.8453 10.488C33.1579 10.8006 33.3335 11.2245 33.3335 11.6665L20.0002 19.7998L6.66683 11.6665C6.66683 11.2245 6.84242 10.8006 7.15499 10.488C7.46755 10.1754 7.89147 9.99984 8.3335 9.99984ZM33.3335 28.3332C33.3335 28.7752 33.1579 29.1991 32.8453 29.5117C32.5328 29.8242 32.1089 29.9998 31.6668 29.9998H8.3335C7.89147 29.9998 7.46755 29.8242 7.15499 29.5117C6.84242 29.1991 6.66683 28.7752 6.66683 28.3332V15.4665L19.1335 23.0832C19.3869 23.2295 19.6743 23.3065 19.9668 23.3065C20.2594 23.3065 20.5468 23.2295 20.8002 23.0832L33.3335 15.4665V28.3332Z" fill="white"/>
</svg>
