<svg width="30" height="30" viewBox="0 0 30 30" fill="none" xmlns="http://www.w3.org/2000/svg">
<path d="M15 8.75C14.6685 8.75 14.3505 8.8817 14.1161 9.11612C13.8817 9.35054 13.75 9.66848 13.75 10V15C13.75 15.3315 13.8817 15.6495 14.1161 15.8839C14.3505 16.1183 14.6685 16.25 15 16.25C15.3315 16.25 15.6495 16.1183 15.8839 15.8839C16.1183 15.6495 16.25 15.3315 16.25 15V10C16.25 9.66848 16.1183 9.35054 15.8839 9.11612C15.6495 8.8817 15.3315 8.75 15 8.75ZM16.15 19.525C16.1226 19.4453 16.0848 19.3697 16.0375 19.3L15.8875 19.1125C15.7117 18.9391 15.4885 18.8216 15.246 18.7748C15.0035 18.7281 14.7526 18.7543 14.525 18.85C14.3735 18.9133 14.234 19.0021 14.1125 19.1125C13.9967 19.2293 13.905 19.3678 13.8428 19.5201C13.7806 19.6724 13.7491 19.8355 13.75 20C13.752 20.1633 13.786 20.3247 13.85 20.475C13.9061 20.6301 13.9957 20.771 14.1124 20.8876C14.229 21.0043 14.3699 21.0939 14.525 21.15C14.6746 21.2161 14.8364 21.2503 15 21.2503C15.1636 21.2503 15.3254 21.2161 15.475 21.15C15.6301 21.0939 15.771 21.0043 15.8876 20.8876C16.0043 20.771 16.0939 20.6301 16.15 20.475C16.2141 20.3247 16.248 20.1633 16.25 20C16.2561 19.9168 16.2561 19.8332 16.25 19.75C16.2285 19.6703 16.1948 19.5944 16.15 19.525ZM15 2.5C12.5277 2.5 10.111 3.23311 8.05538 4.60663C5.99976 5.98015 4.39761 7.93238 3.45151 10.2165C2.50542 12.5005 2.25787 15.0139 2.74019 17.4386C3.2225 19.8634 4.41301 22.0907 6.16117 23.8388C7.90933 25.587 10.1366 26.7775 12.5614 27.2598C14.9861 27.7421 17.4995 27.4946 19.7836 26.5485C22.0676 25.6024 24.0199 24.0002 25.3934 21.9446C26.7669 19.889 27.5 17.4723 27.5 15C27.5 13.3585 27.1767 11.733 26.5485 10.2165C25.9203 8.69989 24.9996 7.3219 23.8388 6.16117C22.6781 5.00043 21.3001 4.07969 19.7836 3.45151C18.267 2.82332 16.6415 2.5 15 2.5ZM15 25C13.0222 25 11.0888 24.4135 9.4443 23.3147C7.79981 22.2159 6.51809 20.6541 5.76121 18.8268C5.00433 16.9996 4.8063 14.9889 5.19215 13.0491C5.57801 11.1093 6.53041 9.32746 7.92894 7.92893C9.32746 6.53041 11.1093 5.578 13.0491 5.19215C14.9889 4.8063 16.9996 5.00433 18.8268 5.7612C20.6541 6.51808 22.2159 7.79981 23.3147 9.4443C24.4135 11.0888 25 13.0222 25 15C25 17.6522 23.9464 20.1957 22.0711 22.0711C20.1957 23.9464 17.6522 25 15 25Z" fill="#FD7E14"/>
</svg>
