<svg width="40" height="40" viewBox="0 0 40 40" fill="none" xmlns="http://www.w3.org/2000/svg">
<path d="M31.6666 3.33301H8.33325C7.00717 3.33301 5.7354 3.85979 4.79772 4.79747C3.86004 5.73516 3.33325 7.00693 3.33325 8.33301V10.283C3.33301 10.9712 3.47486 11.6521 3.74992 12.283V12.383C3.98538 12.918 4.31891 13.4041 4.73325 13.8163L14.9999 24.0163V34.9997C14.9994 35.2829 15.071 35.5616 15.208 35.8095C15.3451 36.0574 15.5431 36.2662 15.7833 36.4163C16.0485 36.5807 16.3545 36.6673 16.6666 36.6663C16.9275 36.6648 17.1844 36.602 17.4166 36.483L24.0833 33.1497C24.3581 33.0112 24.5892 32.7993 24.751 32.5375C24.9128 32.2756 24.999 31.9741 24.9999 31.6663V24.0163L35.1999 13.8163C35.6143 13.4041 35.9478 12.918 36.1833 12.383V12.283C36.4813 11.6571 36.6459 10.976 36.6666 10.283V8.33301C36.6666 7.00693 36.1398 5.73516 35.2021 4.79747C34.2644 3.85979 32.9927 3.33301 31.6666 3.33301ZM22.1499 22.1497C21.9955 22.3054 21.8732 22.4901 21.7903 22.6932C21.7074 22.8962 21.6653 23.1137 21.6666 23.333V30.633L18.3333 32.2997V23.333C18.3345 23.1137 18.2925 22.8962 18.2095 22.6932C18.1266 22.4901 18.0044 22.3054 17.8499 22.1497L9.01659 13.333H30.9833L22.1499 22.1497ZM33.3333 9.99967H6.66659V8.33301C6.66659 7.89098 6.84218 7.46706 7.15474 7.1545C7.4673 6.84194 7.89122 6.66634 8.33325 6.66634H31.6666C32.1086 6.66634 32.5325 6.84194 32.8451 7.1545C33.1577 7.46706 33.3333 7.89098 33.3333 8.33301V9.99967Z" fill="white"/>
</svg>
