<svg width="30" height="30" viewBox="0 0 30 30" fill="none" xmlns="http://www.w3.org/2000/svg">
<path d="M14.1125 19.1125C14.0587 19.1719 14.0087 19.2345 13.9625 19.3C13.9152 19.3697 13.8774 19.4453 13.85 19.525C13.814 19.5959 13.7887 19.6717 13.775 19.75C13.7689 19.8332 13.7689 19.9168 13.775 20C13.7708 20.164 13.805 20.3266 13.875 20.475C13.9311 20.6301 14.0207 20.771 14.1374 20.8876C14.254 21.0043 14.3949 21.0939 14.55 21.15C14.6996 21.2161 14.8614 21.2503 15.025 21.2503C15.1886 21.2503 15.3504 21.2161 15.5 21.15C15.6551 21.0939 15.796 21.0043 15.9126 20.8876C16.0293 20.771 16.1189 20.6301 16.175 20.475C16.2305 20.323 16.256 20.1617 16.25 20C16.251 19.8355 16.2194 19.6724 16.1572 19.5201C16.095 19.3678 16.0034 19.2293 15.8875 19.1125C15.7713 18.9953 15.6331 18.9023 15.4807 18.8389C15.3284 18.7754 15.165 18.7428 15 18.7428C14.835 18.7428 14.6716 18.7754 14.5193 18.8389C14.367 18.9023 14.2287 18.9953 14.1125 19.1125ZM15 2.5C12.5277 2.5 10.111 3.23311 8.05538 4.60663C5.99976 5.98015 4.39761 7.93238 3.45151 10.2165C2.50542 12.5005 2.25787 15.0139 2.74019 17.4386C3.2225 19.8634 4.41301 22.0907 6.16117 23.8388C7.90933 25.587 10.1366 26.7775 12.5614 27.2598C14.9861 27.7421 17.4995 27.4946 19.7835 26.5485C22.0676 25.6024 24.0199 24.0002 25.3934 21.9446C26.7669 19.889 27.5 17.4723 27.5 15C27.5 13.3585 27.1767 11.733 26.5485 10.2165C25.9203 8.69989 24.9996 7.3219 23.8388 6.16117C22.6781 5.00043 21.3001 4.07969 19.7835 3.45151C18.267 2.82332 16.6415 2.5 15 2.5V2.5ZM15 25C13.0222 25 11.0888 24.4135 9.4443 23.3147C7.79981 22.2159 6.51809 20.6541 5.76121 18.8268C5.00433 16.9996 4.8063 14.9889 5.19215 13.0491C5.57801 11.1093 6.53041 9.32746 7.92894 7.92893C9.32746 6.53041 11.1093 5.578 13.0491 5.19215C14.9889 4.8063 16.9996 5.00433 18.8268 5.7612C20.6541 6.51808 22.2159 7.79981 23.3147 9.4443C24.4135 11.0888 25 13.0222 25 15C25 17.6522 23.9464 20.1957 22.0711 22.0711C20.1957 23.9464 17.6522 25 15 25V25ZM15 8.75C14.3413 8.74958 13.6942 8.92265 13.1236 9.2518C12.5531 9.58096 12.0793 10.0546 11.75 10.625C11.6596 10.7673 11.5988 10.9264 11.5715 11.0927C11.5441 11.2591 11.5507 11.4292 11.5908 11.593C11.6309 11.7567 11.7037 11.9107 11.8049 12.0455C11.906 12.1804 12.0334 12.2934 12.1793 12.3778C12.3253 12.4622 12.4868 12.5161 12.6542 12.5365C12.8215 12.5568 12.9913 12.5431 13.1532 12.4961C13.3151 12.4491 13.4658 12.3699 13.5963 12.2631C13.7268 12.1564 13.8344 12.0244 13.9125 11.875C14.0226 11.6842 14.1812 11.526 14.3722 11.4162C14.5632 11.3065 14.7797 11.2491 15 11.25C15.3315 11.25 15.6495 11.3817 15.8839 11.6161C16.1183 11.8505 16.25 12.1685 16.25 12.5C16.25 12.8315 16.1183 13.1495 15.8839 13.3839C15.6495 13.6183 15.3315 13.75 15 13.75C14.6685 13.75 14.3505 13.8817 14.1161 14.1161C13.8817 14.3505 13.75 14.6685 13.75 15V16.25C13.75 16.5815 13.8817 16.8995 14.1161 17.1339C14.3505 17.3683 14.6685 17.5 15 17.5C15.3315 17.5 15.6495 17.3683 15.8839 17.1339C16.1183 16.8995 16.25 16.5815 16.25 16.25V16.025C17.0767 15.725 17.7717 15.144 18.2135 14.3836C18.6552 13.6231 18.8157 12.7316 18.6668 11.8649C18.5178 10.9981 18.069 10.2113 17.3987 9.64189C16.7285 9.07252 15.8794 8.75682 15 8.75V8.75Z" fill="white"/>
</svg>
