<svg width="30" height="30" viewBox="0 0 30 30" fill="none" xmlns="http://www.w3.org/2000/svg">
<path d="M15 13.75C14.6685 13.75 14.3505 13.8817 14.1161 14.1161C13.8817 14.3505 13.75 14.6685 13.75 15V20C13.75 20.3315 13.8817 20.6495 14.1161 20.8839C14.3505 21.1183 14.6685 21.25 15 21.25C15.3315 21.25 15.6495 21.1183 15.8839 20.8839C16.1183 20.6495 16.25 20.3315 16.25 20V15C16.25 14.6685 16.1183 14.3505 15.8839 14.1161C15.6495 13.8817 15.3315 13.75 15 13.75ZM15.475 8.85C15.1707 8.72498 14.8293 8.72498 14.525 8.85C14.3716 8.90949 14.2314 8.9987 14.1125 9.1125C14.0021 9.234 13.9133 9.37352 13.85 9.525C13.78 9.67335 13.7458 9.83603 13.75 10C13.7491 10.1645 13.7806 10.3276 13.8428 10.4799C13.905 10.6322 13.9967 10.7707 14.1125 10.8875C14.234 10.9979 14.3735 11.0867 14.525 11.15C14.7144 11.2278 14.92 11.2579 15.1237 11.2376C15.3274 11.2174 15.523 11.1474 15.6934 11.0338C15.8637 10.9203 16.0036 10.7666 16.1006 10.5863C16.1977 10.4061 16.249 10.2047 16.25 10C16.2454 9.66904 16.1159 9.35204 15.8875 9.1125C15.7686 8.9987 15.6284 8.90949 15.475 8.85ZM15 2.5C12.5277 2.5 10.111 3.23311 8.05538 4.60663C5.99976 5.98015 4.39761 7.93238 3.45151 10.2165C2.50542 12.5005 2.25787 15.0139 2.74019 17.4386C3.2225 19.8634 4.41301 22.0907 6.16117 23.8388C7.90933 25.587 10.1366 26.7775 12.5614 27.2598C14.9861 27.7421 17.4995 27.4946 19.7835 26.5485C22.0676 25.6024 24.0199 24.0002 25.3934 21.9446C26.7669 19.889 27.5 17.4723 27.5 15C27.5 13.3585 27.1767 11.733 26.5485 10.2165C25.9203 8.69989 24.9996 7.3219 23.8388 6.16117C22.6781 5.00043 21.3001 4.07969 19.7835 3.45151C18.267 2.82332 16.6415 2.5 15 2.5V2.5ZM15 25C13.0222 25 11.0888 24.4135 9.4443 23.3147C7.79981 22.2159 6.51809 20.6541 5.76121 18.8268C5.00433 16.9996 4.8063 14.9889 5.19215 13.0491C5.57801 11.1093 6.53041 9.32746 7.92894 7.92893C9.32746 6.53041 11.1093 5.578 13.0491 5.19215C14.9889 4.8063 16.9996 5.00433 18.8268 5.7612C20.6541 6.51808 22.2159 7.79981 23.3147 9.4443C24.4135 11.0888 25 13.0222 25 15C25 17.6522 23.9464 20.1957 22.0711 22.0711C20.1957 23.9464 17.6522 25 15 25V25Z" fill="white"/>
</svg>
