<svg width="50" height="50" viewBox="0 0 50 50" fill="none" xmlns="http://www.w3.org/2000/svg">
<path d="M7.72912 33.9375C7.53099 33.7478 7.29735 33.5992 7.04162 33.5C6.53441 33.2916 5.9655 33.2916 5.45829 33.5C5.20256 33.5992 4.96892 33.7478 4.77079 33.9375C4.58112 34.1356 4.43244 34.3693 4.33329 34.625C4.17375 35.0044 4.13016 35.4226 4.20802 35.8267C4.28588 36.2308 4.48171 36.6029 4.77079 36.8958C4.97329 37.0799 5.20582 37.2278 5.45829 37.3333C5.70766 37.4436 5.97731 37.5005 6.24996 37.5005C6.5226 37.5005 6.79225 37.4436 7.04162 37.3333C7.29409 37.2278 7.52662 37.0799 7.72912 36.8958C8.0182 36.6029 8.21403 36.2308 8.29189 35.8267C8.36975 35.4226 8.32616 35.0044 8.16662 34.625C8.06747 34.3693 7.91879 34.1356 7.72912 33.9375ZM14.5833 16.6667H43.75C44.3025 16.6667 44.8324 16.4472 45.2231 16.0565C45.6138 15.6658 45.8333 15.1359 45.8333 14.5833C45.8333 14.0308 45.6138 13.5009 45.2231 13.1102C44.8324 12.7195 44.3025 12.5 43.75 12.5H14.5833C14.0308 12.5 13.5009 12.7195 13.1102 13.1102C12.7194 13.5009 12.5 14.0308 12.5 14.5833C12.5 15.1359 12.7194 15.6658 13.1102 16.0565C13.5009 16.4472 14.0308 16.6667 14.5833 16.6667ZM7.72912 23.5208C7.43616 23.2318 7.06413 23.0359 6.65998 22.9581C6.25584 22.8802 5.83769 22.9238 5.45829 23.0833C5.20582 23.1888 4.97329 23.3368 4.77079 23.5208C4.58112 23.719 4.43244 23.9526 4.33329 24.2083C4.22307 24.4577 4.16614 24.7274 4.16614 25C4.16614 25.2726 4.22307 25.5423 4.33329 25.7917C4.43879 26.0441 4.58677 26.2767 4.77079 26.4792C4.97329 26.6632 5.20582 26.8112 5.45829 26.9167C5.70766 27.0269 5.97731 27.0838 6.24996 27.0838C6.5226 27.0838 6.79225 27.0269 7.04162 26.9167C7.29409 26.8112 7.52662 26.6632 7.72912 26.4792C7.91315 26.2767 8.06112 26.0441 8.16662 25.7917C8.27684 25.5423 8.33377 25.2726 8.33377 25C8.33377 24.7274 8.27684 24.4577 8.16662 24.2083C8.06747 23.9526 7.91879 23.719 7.72912 23.5208ZM43.75 22.9167H14.5833C14.0308 22.9167 13.5009 23.1362 13.1102 23.5269C12.7194 23.9176 12.5 24.4475 12.5 25C12.5 25.5525 12.7194 26.0824 13.1102 26.4731C13.5009 26.8638 14.0308 27.0833 14.5833 27.0833H43.75C44.3025 27.0833 44.8324 26.8638 45.2231 26.4731C45.6138 26.0824 45.8333 25.5525 45.8333 25C45.8333 24.4475 45.6138 23.9176 45.2231 23.5269C44.8324 23.1362 44.3025 22.9167 43.75 22.9167ZM7.72912 13.1042C7.53099 12.9145 7.29735 12.7658 7.04162 12.6667C6.66222 12.5071 6.24407 12.4635 5.83993 12.5414C5.43578 12.6193 5.06376 12.8151 4.77079 13.1042C4.58677 13.3067 4.43879 13.5392 4.33329 13.7917C4.22307 14.041 4.16614 14.3107 4.16614 14.5833C4.16614 14.856 4.22307 15.1256 4.33329 15.375C4.43879 15.6275 4.58677 15.86 4.77079 16.0625C4.97329 16.2465 5.20582 16.3945 5.45829 16.5C5.83769 16.6595 6.25584 16.7031 6.65998 16.6253C7.06413 16.5474 7.43616 16.3516 7.72912 16.0625C7.91315 15.86 8.06112 15.6275 8.16662 15.375C8.27684 15.1256 8.33377 14.856 8.33377 14.5833C8.33377 14.3107 8.27684 14.041 8.16662 13.7917C8.06112 13.5392 7.91315 13.3067 7.72912 13.1042ZM43.75 33.3333H14.5833C14.0308 33.3333 13.5009 33.5528 13.1102 33.9435C12.7194 34.3342 12.5 34.8641 12.5 35.4167C12.5 35.9692 12.7194 36.4991 13.1102 36.8898C13.5009 37.2805 14.0308 37.5 14.5833 37.5H43.75C44.3025 37.5 44.8324 37.2805 45.2231 36.8898C45.6138 36.4991 45.8333 35.9692 45.8333 35.4167C45.8333 34.8641 45.6138 34.3342 45.2231 33.9435C44.8324 33.5528 44.3025 33.3333 43.75 33.3333Z" fill="white"/>
</svg>
