<svg width="50" height="50" viewBox="0 0 50 50" fill="none" xmlns="http://www.w3.org/2000/svg">
<path d="M39.5834 22.9163H27.0834V10.4163C27.0834 9.86381 26.8639 9.3339 26.4732 8.9432C26.0825 8.5525 25.5526 8.33301 25 8.33301C24.4475 8.33301 23.9176 8.5525 23.5269 8.9432C23.1362 9.3339 22.9167 9.86381 22.9167 10.4163V22.9163H10.4167C9.86417 22.9163 9.33427 23.1358 8.94357 23.5265C8.55287 23.9172 8.33337 24.4471 8.33337 24.9997C8.33337 25.5522 8.55287 26.0821 8.94357 26.4728C9.33427 26.8635 9.86417 27.083 10.4167 27.083H22.9167V39.583C22.9167 40.1355 23.1362 40.6655 23.5269 41.0562C23.9176 41.4469 24.4475 41.6663 25 41.6663C25.5526 41.6663 26.0825 41.4469 26.4732 41.0562C26.8639 40.6655 27.0834 40.1355 27.0834 39.583V27.083H39.5834C40.1359 27.083 40.6658 26.8635 41.0565 26.4728C41.4472 26.0821 41.6667 25.5522 41.6667 24.9997C41.6667 24.4471 41.4472 23.9172 41.0565 23.5265C40.6658 23.1358 40.1359 22.9163 39.5834 22.9163Z" fill="white"/>
</svg>
