<svg width="50" height="50" viewBox="0 0 50 50" fill="none" xmlns="http://www.w3.org/2000/svg">
<path d="M44.5416 12C44.4704 11.734 44.3473 11.4847 44.1792 11.2666C44.0111 11.0484 43.8015 10.8658 43.5624 10.7292L32.7291 4.47918C32.4925 4.34057 32.2309 4.25001 31.9593 4.21269C31.6877 4.17537 31.4114 4.19203 31.1463 4.2617C30.8811 4.33138 30.6323 4.4527 30.4142 4.61872C30.196 4.78474 30.0127 4.99219 29.8749 5.22918L24.9999 13.6875L20.1249 5.22918C19.987 4.99219 19.8038 4.78474 19.5856 4.61872C19.3674 4.4527 19.1186 4.33138 18.8535 4.2617C18.5883 4.19203 18.312 4.17537 18.0404 4.21269C17.7688 4.25001 17.5073 4.34057 17.2707 4.47918L6.43739 10.7292C6.19829 10.8658 5.98864 11.0484 5.82057 11.2666C5.6525 11.4847 5.52935 11.734 5.45822 12C5.32034 12.528 5.39515 13.0891 5.66656 13.5625L13.9999 27.7917C13.0702 29.4949 12.5562 31.3937 12.4999 33.3333C12.4949 35.2256 12.9196 37.0943 13.742 38.7985C14.5644 40.5027 15.7629 41.998 17.2473 43.1716C18.7317 44.3452 20.4631 45.1665 22.3111 45.5735C24.159 45.9805 26.0753 45.9627 27.9154 45.5213C29.7555 45.08 31.4713 44.2266 32.9336 43.0256C34.3958 41.8246 35.5664 40.3072 36.3569 38.588C37.1474 36.8688 37.5372 34.9925 37.497 33.1007C37.4568 31.2088 36.9877 29.3508 36.1249 27.6667L44.2499 13.5833C44.4011 13.352 44.5048 13.0928 44.5548 12.821C44.6049 12.5492 44.6004 12.2701 44.5416 12ZM10.4166 13.2917L17.6249 9.12501L24.3332 20.8333C21.4737 21.01 18.764 22.1734 16.6666 24.125L10.4166 13.2917ZM24.9999 41.6667C22.7898 41.6667 20.6701 40.7887 19.1073 39.2259C17.5445 37.6631 16.6666 35.5435 16.6666 33.3333C16.6666 31.1232 17.5445 29.0036 19.1073 27.4408C20.6701 25.878 22.7898 25 24.9999 25C27.21 25 29.3296 25.878 30.8924 27.4408C32.4552 29.0036 33.3332 31.1232 33.3332 33.3333C33.3332 35.5435 32.4552 37.6631 30.8924 39.2259C29.3296 40.7887 27.21 41.6667 24.9999 41.6667ZM33.3332 24.0625C32.2021 23.0294 30.8879 22.2168 29.4582 21.6667L27.4166 17.8542L32.4582 9.12501L39.6666 13.2917L33.3332 24.0625Z" fill="white"/>
</svg>
