<svg width="50" height="50" viewBox="0 0 50 50" fill="none" xmlns="http://www.w3.org/2000/svg">
<path d="M43.896 35.0623L39.5835 30.6457C38.6559 29.7639 37.4857 29.1796 36.2235 28.968C34.9613 28.7564 33.6646 28.9271 32.5001 29.4582L30.6251 27.5831C32.8346 24.6309 33.8437 20.9512 33.4492 17.2849C33.0547 13.6186 31.2859 10.2378 28.499 7.82315C25.712 5.40852 22.1138 4.13931 18.4286 4.27103C14.7435 4.40276 11.245 5.92563 8.63758 8.53309C6.03012 11.1405 4.50725 14.639 4.37553 18.3241C4.2438 22.0093 5.51301 25.6075 7.92764 28.3945C10.3423 31.1814 13.723 32.9502 17.3894 33.3447C21.0557 33.7392 24.7354 32.7301 27.6876 30.5206L29.5418 32.3748C28.9482 33.5407 28.7355 34.8635 28.9336 36.1567C29.1317 37.4499 29.7306 38.6484 30.646 39.5831L35.0626 43.9998C36.2345 45.1702 37.8231 45.8276 39.4793 45.8276C41.1356 45.8276 42.7241 45.1702 43.896 43.9998C44.4913 43.4177 44.9643 42.7226 45.2872 41.9552C45.6101 41.1878 45.7764 40.3636 45.7764 39.5311C45.7764 38.6985 45.6101 37.8743 45.2872 37.1069C44.9643 36.3395 44.4913 35.6444 43.896 35.0623ZM26.2293 26.229C24.7715 27.6831 22.9153 28.6726 20.8954 29.0724C18.8755 29.4722 16.7824 29.2644 14.8806 28.4752C12.9787 27.686 11.3534 26.3509 10.21 24.6384C9.06652 22.926 8.45626 20.9131 8.45626 18.854C8.45626 16.7949 9.06652 14.782 10.21 13.0695C11.3534 11.3571 12.9787 10.0219 14.8806 9.23276C16.7824 8.44357 18.8755 8.23575 20.8954 8.63555C22.9153 9.03534 24.7715 10.0248 26.2293 11.479C27.1994 12.4466 27.969 13.5961 28.4942 14.8616C29.0193 16.1271 29.2896 17.4838 29.2896 18.854C29.2896 20.2241 29.0193 21.5808 28.4942 22.8464C27.969 24.1119 27.1994 25.2614 26.2293 26.229ZM40.9585 40.9581C40.7648 41.1534 40.5344 41.3084 40.2805 41.4142C40.0266 41.5199 39.7543 41.5744 39.4793 41.5744C39.2043 41.5744 38.932 41.5199 38.6781 41.4142C38.4242 41.3084 38.1938 41.1534 38.0001 40.9581L33.5835 36.5415C33.3882 36.3478 33.2332 36.1174 33.1275 35.8635C33.0217 35.6096 32.9672 35.3373 32.9672 35.0623C32.9672 34.7873 33.0217 34.515 33.1275 34.2611C33.2332 34.0072 33.3882 33.7768 33.5835 33.5832C33.7771 33.3879 34.0076 33.2329 34.2614 33.1271C34.5153 33.0214 34.7876 32.9669 35.0626 32.9669C35.3377 32.9669 35.61 33.0214 35.8638 33.1271C36.1177 33.2329 36.3481 33.3879 36.5418 33.5832L40.9585 37.9998C41.1537 38.1935 41.3087 38.4239 41.4145 38.6778C41.5203 38.9317 41.5747 39.204 41.5747 39.479C41.5747 39.754 41.5203 40.0263 41.4145 40.2802C41.3087 40.5341 41.1537 40.7645 40.9585 40.9581Z" fill="white"/>
</svg>
