<svg width="40" height="40" viewBox="0 0 40 40" fill="none" xmlns="http://www.w3.org/2000/svg">
<path d="M33.3333 18.3333H6.66667C5.66667 18.3333 5 19 5 20C5 21 5.66667 21.6667 6.66667 21.6667H33.3333C34.3333 21.6667 35 21 35 20C35 19 34.3333 18.3333 33.3333 18.3333ZM6.66667 13.3333H33.3333C34.3333 13.3333 35 12.6667 35 11.6667C35 10.6667 34.3333 10 33.3333 10H6.66667C5.66667 10 5 10.6667 5 11.6667C5 12.6667 5.66667 13.3333 6.66667 13.3333ZM33.3333 26.6667H6.66667C5.66667 26.6667 5 27.3333 5 28.3333C5 29.3333 5.66667 30 6.66667 30H33.3333C34.3333 30 35 29.3333 35 28.3333C35 27.3333 34.3333 26.6667 33.3333 26.6667Z" fill="white"/>
</svg>
