<svg width="50" height="50" viewBox="0 0 50 50" fill="none" xmlns="http://www.w3.org/2000/svg">
<path d="M25.6252 25.4582C26.7368 24.4959 27.6284 23.3058 28.2395 21.9686C28.8506 20.6314 29.1668 19.1784 29.1668 17.7082C29.1668 14.9455 28.0694 12.296 26.1159 10.3425C24.1624 8.38897 21.5128 7.2915 18.7502 7.2915C15.9875 7.2915 13.338 8.38897 11.3845 10.3425C9.43096 12.296 8.3335 14.9455 8.3335 17.7082C8.33348 19.1784 8.64975 20.6314 9.26084 21.9686C9.87193 23.3058 10.7635 24.4959 11.8752 25.4582C8.95879 26.7788 6.48447 28.9114 4.74804 31.601C3.01161 34.2906 2.08656 37.4234 2.0835 40.6248C2.0835 41.1774 2.30299 41.7073 2.69369 42.098C3.08439 42.4887 3.6143 42.7082 4.16683 42.7082C4.71936 42.7082 5.24927 42.4887 5.63997 42.098C6.03067 41.7073 6.25016 41.1774 6.25016 40.6248C6.25016 37.3096 7.56712 34.1302 9.91133 31.786C12.2555 29.4418 15.435 28.1248 18.7502 28.1248C22.0654 28.1248 25.2448 29.4418 27.589 31.786C29.9332 34.1302 31.2502 37.3096 31.2502 40.6248C31.2502 41.1774 31.4697 41.7073 31.8604 42.098C32.2511 42.4887 32.781 42.7082 33.3335 42.7082C33.886 42.7082 34.4159 42.4887 34.8066 42.098C35.1973 41.7073 35.4168 41.1774 35.4168 40.6248C35.4138 37.4234 34.4887 34.2906 32.7523 31.601C31.0159 28.9114 28.5415 26.7788 25.6252 25.4582V25.4582ZM18.7502 23.9582C17.514 23.9582 16.3057 23.5916 15.2778 22.9049C14.25 22.2181 13.449 21.242 12.9759 20.0999C12.5029 18.9579 12.3791 17.7012 12.6203 16.4889C12.8614 15.2765 13.4567 14.1628 14.3307 13.2888C15.2048 12.4147 16.3185 11.8194 17.5308 11.5783C18.7432 11.3371 19.9999 11.4609 21.1419 11.9339C22.284 12.407 23.2601 13.208 23.9468 14.2359C24.6336 15.2637 25.0002 16.472 25.0002 17.7082C25.0002 19.3658 24.3417 20.9555 23.1696 22.1276C21.9975 23.2997 20.4078 23.9582 18.7502 23.9582ZM39.0418 24.6248C40.3751 23.1234 41.246 21.2687 41.5498 19.2839C41.8535 17.2991 41.5771 15.2687 40.7538 13.4373C39.9306 11.6059 38.5956 10.0515 36.9095 8.96113C35.2234 7.87077 33.2581 7.29097 31.2502 7.2915C30.6976 7.2915 30.1677 7.511 29.777 7.9017C29.3863 8.2924 29.1668 8.8223 29.1668 9.37484C29.1668 9.92737 29.3863 10.4573 29.777 10.848C30.1677 11.2387 30.6976 11.4582 31.2502 11.4582C32.9078 11.4582 34.4975 12.1167 35.6696 13.2888C36.8417 14.4609 37.5002 16.0506 37.5002 17.7082C37.4972 18.8024 37.207 19.8767 36.6586 20.8236C36.1102 21.7705 35.3228 22.5569 34.3752 23.104C34.0663 23.2822 33.8083 23.5366 33.6259 23.843C33.4435 24.1495 33.3428 24.4975 33.3335 24.854C33.3248 25.2077 33.4063 25.5577 33.5703 25.8712C33.7343 26.1847 33.9755 26.4512 34.271 26.6457L35.0835 27.1873L35.3543 27.3332C37.8656 28.5242 39.9841 30.4082 41.4605 32.763C42.9369 35.1178 43.7096 37.8455 43.6877 40.6248C43.6877 41.1774 43.9072 41.7073 44.2979 42.098C44.6886 42.4887 45.2185 42.7082 45.771 42.7082C46.3235 42.7082 46.8534 42.4887 47.2441 42.098C47.6348 41.7073 47.8543 41.1774 47.8543 40.6248C47.8714 37.4278 47.0706 34.2795 45.5282 31.4791C43.9858 28.6787 41.753 26.3192 39.0418 24.6248V24.6248Z" fill="white"/>
</svg>
