<svg width="70" height="70" viewBox="0 0 70 70" fill="none" xmlns="http://www.w3.org/2000/svg">
<circle cx="35" cy="35" r="34" fill="#424549" stroke="#FD7E14" stroke-width="2"/>
<path d="M42.729 44.4792C44.7715 42.8723 46.2623 40.6686 46.9941 38.1749C47.7259 35.6812 47.6622 33.0214 46.8119 30.5656C45.9617 28.1098 44.3671 25.98 42.25 24.4727C40.133 22.9653 37.5987 22.1553 34.9999 22.1553C32.401 22.1553 29.8668 22.9653 27.7497 24.4727C25.6327 25.98 24.0381 28.1098 23.1878 30.5656C22.3375 33.0214 22.2739 35.6812 23.0056 38.1749C23.7374 40.6686 25.2282 42.8723 27.2707 44.4792C23.7709 45.8814 20.7171 48.207 18.4351 51.2082C16.153 54.2094 14.7281 57.7736 14.3124 61.5209C14.2823 61.7945 14.3064 62.0713 14.3833 62.3356C14.4602 62.5999 14.5883 62.8464 14.7605 63.0612C15.1082 63.4948 15.614 63.7726 16.1665 63.8334C16.7191 63.8942 17.2731 63.733 17.7068 63.3852C18.1405 63.0375 18.4183 62.5318 18.479 61.9792C18.9365 57.9067 20.8784 54.1455 23.9337 51.4142C26.9889 48.6829 30.9434 47.173 35.0415 47.173C39.1397 47.173 43.0941 48.6829 46.1494 51.4142C49.2047 54.1455 51.1466 57.9067 51.604 61.9792C51.6607 62.4911 51.9049 62.9639 52.2897 63.3063C52.6744 63.6488 53.1723 63.8365 53.6874 63.8334H53.9165C54.4627 63.7706 54.9618 63.4944 55.3052 63.0652C55.6486 62.6359 55.8084 62.0883 55.7499 61.5417C55.3321 57.7838 53.8996 54.2104 51.6058 51.2047C49.312 48.1989 46.2434 45.874 42.729 44.4792V44.4792ZM34.9999 43.0001C33.3517 43.0001 31.7405 42.5113 30.3701 41.5956C28.9997 40.68 27.9316 39.3785 27.3009 37.8558C26.6701 36.333 26.5051 34.6575 26.8267 33.041C27.1482 31.4245 27.9419 29.9396 29.1073 28.7742C30.2728 27.6087 31.7576 26.8151 33.3741 26.4935C34.9906 26.172 36.6662 26.337 38.1889 26.9677C39.7116 27.5985 41.0131 28.6666 41.9288 30.037C42.8445 31.4074 43.3332 33.0185 43.3332 34.6667C43.3332 36.8769 42.4552 38.9965 40.8924 40.5593C39.3296 42.1221 37.21 43.0001 34.9999 43.0001Z" fill="#FD7E14"/>
</svg>
